<svg width="243" height="224" viewBox="0 0 243 224" fill="none" xmlns="http://www.w3.org/2000/svg">
<circle cx="15.4395" cy="204.44" r="25" transform="rotate(5.90548 15.4395 204.44)" fill="#355070"/>
<circle cx="31.9561" cy="141.956" r="13.9486" transform="rotate(5.90548 31.9561 141.956)" stroke="#355070" stroke-width="3"/>
<circle cx="-0.0438665" cy="16.9561" r="13.9486" transform="rotate(5.90548 -0.0438665 16.9561)" stroke="#355070" stroke-width="3"/>
<circle cx="98.2512" cy="114.488" r="4.5" transform="rotate(5.90548 98.2512 114.488)" fill="#355070" stroke="#355070" stroke-width="3"/>
<circle cx="105.333" cy="177.333" r="5.18066" transform="rotate(5.90548 105.333 177.333)" fill="#355070" stroke="#355070" stroke-width="3"/>
<circle cx="159.293" cy="221.976" r="8.5" transform="rotate(5.90548 159.293 221.976)" fill="#355070" stroke="#355070" stroke-width="3"/>
<circle cx="25.5889" cy="89.134" r="6" transform="rotate(5.90548 25.5889 89.134)" fill="#355070" stroke="#355070" stroke-width="3"/>
<circle cx="159.329" cy="136.329" r="7" transform="rotate(5.90548 159.329 136.329)" stroke="#355070" stroke-width="3"/>
<circle cx="74.3325" cy="61.3326" r="5.68066" transform="rotate(5.90548 74.3325 61.3326)" stroke="#355070" stroke-width="2"/>
<circle cx="236.28" cy="218.037" r="4.5" transform="rotate(5.90548 236.28 218.037)" stroke="#355070" stroke-width="2"/>
<circle cx="77.0632" cy="218.232" r="6.5" transform="rotate(5.90548 77.0632 218.232)" stroke="#355070" stroke-width="2"/>
</svg>
