<svg width="21" height="21" viewBox="0 0 21 21" fill="none" xmlns="http://www.w3.org/2000/svg">
<path d="M20.4124 0.478199C20.2659 0.331419 20.0919 0.214968 19.9004 0.135514C19.7088 0.0560603 19.5035 0.0151625 19.2961 0.0151625C19.0887 0.0151625 18.8834 0.0560603 18.6919 0.135514C18.5003 0.214968 18.3263 0.331419 18.1799 0.478199L10.4374 8.20487L2.69487 0.462365C2.54828 0.315777 2.37425 0.199497 2.18273 0.120165C1.9912 0.0408317 1.78592 1.54456e-09 1.57862 0C1.37131 -1.54456e-09 1.16603 0.0408317 0.974505 0.120165C0.782979 0.199497 0.608954 0.315777 0.462365 0.462365C0.315777 0.608954 0.199497 0.782979 0.120165 0.974505C0.0408317 1.16603 -1.54456e-09 1.37131 0 1.57862C1.54456e-09 1.78592 0.0408317 1.9912 0.120165 2.18273C0.199497 2.37425 0.315777 2.54828 0.462365 2.69487L8.20487 10.4374L0.462365 18.1799C0.315777 18.3265 0.199497 18.5005 0.120165 18.692C0.0408317 18.8835 0 19.0888 0 19.2961C0 19.5034 0.0408317 19.7087 0.120165 19.9002C0.199497 20.0918 0.315777 20.2658 0.462365 20.4124C0.608954 20.559 0.782979 20.6752 0.974505 20.7546C1.16603 20.8339 1.37131 20.8747 1.57862 20.8747C1.78592 20.8747 1.9912 20.8339 2.18273 20.7546C2.37425 20.6752 2.54828 20.559 2.69487 20.4124L10.4374 12.6699L18.1799 20.4124C18.3265 20.559 18.5005 20.6752 18.692 20.7546C18.8835 20.8339 19.0888 20.8747 19.2961 20.8747C19.5034 20.8747 19.7087 20.8339 19.9002 20.7546C20.0918 20.6752 20.2658 20.559 20.4124 20.4124C20.559 20.2658 20.6752 20.0918 20.7546 19.9002C20.8339 19.7087 20.8747 19.5034 20.8747 19.2961C20.8747 19.0888 20.8339 18.8835 20.7546 18.692C20.6752 18.5005 20.559 18.3265 20.4124 18.1799L12.6699 10.4374L20.4124 2.69487C21.014 2.0932 21.014 1.07987 20.4124 0.478199Z" fill="#EF233C"/>
</svg>
