<svg width="31" height="31" viewBox="0 0 31 31" fill="none" xmlns="http://www.w3.org/2000/svg">
<path d="M28.6243 15.5C28.2376 15.5 27.8666 15.6536 27.5931 15.9271C27.3197 16.2006 27.166 16.5716 27.166 16.9583V25.7083C27.166 26.0951 27.0124 26.466 26.7389 26.7395C26.4654 27.013 26.0945 27.1667 25.7077 27.1667H5.29102C4.90424 27.1667 4.53331 27.013 4.25982 26.7395C3.98633 26.466 3.83268 26.0951 3.83268 25.7083V5.29166C3.83268 4.90488 3.98633 4.53395 4.25982 4.26046C4.53331 3.98697 4.90424 3.83333 5.29102 3.83333H14.041C14.4278 3.83333 14.7987 3.67968 15.0722 3.40619C15.3457 3.1327 15.4993 2.76177 15.4993 2.37499C15.4993 1.98822 15.3457 1.61729 15.0722 1.34379C14.7987 1.0703 14.4278 0.916659 14.041 0.916659H5.29102C4.13069 0.916659 3.0179 1.3776 2.19742 2.19807C1.37695 3.01854 0.916016 4.13134 0.916016 5.29166V25.7083C0.916016 26.8686 1.37695 27.9814 2.19742 28.8019C3.0179 29.6224 4.13069 30.0833 5.29102 30.0833H25.7077C26.868 30.0833 27.9808 29.6224 28.8013 28.8019C29.6217 27.9814 30.0827 26.8686 30.0827 25.7083V16.9583C30.0827 16.5716 29.929 16.2006 29.6555 15.9271C29.3821 15.6536 29.0111 15.5 28.6243 15.5ZM6.74935 16.6083V22.7917C6.74935 23.1784 6.90299 23.5494 7.17648 23.8229C7.44998 24.0963 7.82091 24.25 8.20768 24.25H14.391C14.5829 24.2511 14.7732 24.2143 14.9509 24.1417C15.1286 24.0692 15.2902 23.9622 15.4264 23.8271L25.5181 13.7208L29.6598 9.66666C29.7965 9.53109 29.9049 9.36979 29.979 9.19208C30.053 9.01437 30.0911 8.82376 30.0911 8.63124C30.0911 8.43872 30.053 8.24811 29.979 8.0704C29.9049 7.89269 29.7965 7.7314 29.6598 7.59583L23.4764 1.33958C23.3409 1.20289 23.1796 1.0944 23.0019 1.02036C22.8241 0.946321 22.6335 0.908203 22.441 0.908203C22.2485 0.908203 22.0579 0.946321 21.8802 1.02036C21.7025 1.0944 21.5412 1.20289 21.4056 1.33958L17.2931 5.46666L7.17227 15.5729C7.0371 15.7092 6.93017 15.8708 6.8576 16.0485C6.78503 16.2261 6.74824 16.4164 6.74935 16.6083ZM22.441 4.43124L26.5681 8.55832L24.4973 10.6292L20.3702 6.50208L22.441 4.43124ZM9.66602 17.2062L18.3139 8.55832L22.441 12.6854L13.7931 21.3333H9.66602V17.2062Z" fill="#355070"/>
</svg>
