<svg width="96" height="86" viewBox="0 0 96 86" fill="none" xmlns="http://www.w3.org/2000/svg">
<path fill-rule="evenodd" clip-rule="evenodd" d="M52.9324 0.0918318C64.0466 0.704044 74.4662 5.60174 82.1072 12.3361C91.1375 20.907 96 31.3147 96 43.5589C96 53.3543 91.8322 62.5375 84.8858 70.4962C77.9394 77.8428 68.2145 83.3527 57.1002 85.1893C45.986 87.026 34.8718 85.8016 25.1469 80.9039C15.4219 76.0062 7.78092 68.6596 3.61309 59.4764C-0.554745 50.2932 -1.24938 39.8856 2.22381 30.7024C5.697 20.907 11.9487 12.9483 21.6737 7.43838C30.704 1.92847 41.8182 -0.52038 52.9324 0.0918318ZM56.4056 79.0672C65.4359 77.2306 73.7716 72.9451 80.0233 66.2108C85.5804 59.4764 89.0536 51.5177 88.359 42.9467C88.359 33.1513 84.1911 23.3559 76.5501 16.6216C69.6037 10.4994 61.2681 6.82617 51.5431 6.21395C42.5128 5.60174 32.7879 7.43838 25.1469 12.3361C17.5059 17.2338 11.9487 23.9681 9.17019 32.5391C6.39164 40.4978 6.39164 49.0688 10.5595 57.0276C14.7273 64.9863 20.979 71.1085 29.3147 75.3939C37.6504 79.6794 47.3753 80.9039 56.4056 79.0672ZM48.0699 39.8856L64.7413 24.5803L69.6037 28.8658L52.9324 44.1711L69.6037 59.4764L64.7413 63.7619L48.0699 48.4566L31.3986 63.7619L26.5362 59.4764L43.2075 44.1711L26.5362 28.8658L31.3986 24.5803L48.0699 39.8856Z" fill="#D93D3D"/>
</svg>
