<svg width="55" height="55" viewBox="0 0 55 55" fill="none" xmlns="http://www.w3.org/2000/svg">
<path d="M41.25 34.3749H13.75L4.58331 43.5416V6.87492C4.58331 6.26713 4.82476 5.68424 5.25453 5.25447C5.6843 4.82469 6.26719 4.58325 6.87498 4.58325H41.25C41.8578 4.58325 42.4407 4.82469 42.8704 5.25447C43.3002 5.68424 43.5416 6.26713 43.5416 6.87492V32.0833C43.5416 32.691 43.3002 33.2739 42.8704 33.7037C42.4407 34.1335 41.8578 34.3749 41.25 34.3749ZM52.7083 20.6249V52.7083L43.5416 43.5416H18.3333C17.7255 43.5416 17.1426 43.3001 16.7129 42.8704C16.2831 42.4406 16.0416 41.8577 16.0416 41.2499V38.9583H48.125V18.3333H50.4166C51.0244 18.3333 51.6073 18.5747 52.0371 19.0045C52.4669 19.4342 52.7083 20.0171 52.7083 20.6249ZM18.7687 9.16659C16.775 9.16659 15.1708 9.62492 13.9333 10.5187C12.7416 11.4583 12.1458 12.7645 12.1687 14.5749L12.1916 14.6437H16.6146C16.6375 13.9562 16.8437 13.4291 17.2562 13.0624C17.6806 12.7105 18.2176 12.5234 18.7687 12.5353C19.4791 12.5353 20.075 12.7645 20.4875 13.177C20.9 13.6124 21.0833 14.2083 21.0833 14.8958C21.0833 15.6291 20.9229 16.2478 20.5562 16.7749C20.2354 17.302 19.7541 17.7603 19.1583 18.127C17.9896 18.9062 17.1875 19.5937 16.7521 20.2124C16.2937 20.8083 16.0416 21.7708 16.0416 22.9166H20.625C20.625 22.2062 20.7166 21.6333 20.9229 21.2208C21.1291 20.8083 21.5187 20.3958 22.0916 20.0291C23.1229 19.4791 23.9708 18.8145 24.6354 17.8978C25.3 16.9812 25.6437 16.0416 25.6437 14.8958C25.6437 13.1541 25.025 11.7562 23.7875 10.7249C22.5729 9.69367 20.9 9.16659 18.7687 9.16659ZM16.0416 25.2083V29.7916H20.625V25.2083H16.0416ZM29.7916 29.7916H34.375V25.2083H29.7916V29.7916ZM29.7916 9.16659V22.9166H34.375V9.16659H29.7916Z" fill="#355070"/>
</svg>
