<svg width="30" height="30" viewBox="0 0 30 30" fill="none" xmlns="http://www.w3.org/2000/svg">
<path d="M18.675 24.003C18.5029 24.8507 18.043 25.6129 17.3732 26.1603C16.7035 26.7077 15.865 27.0068 15 27.0068C14.135 27.0068 13.2966 26.7077 12.6268 26.1603C11.9571 25.6129 11.4972 24.8507 11.325 24.003H18.675ZM14.997 3C19.7205 3 23.613 6.5025 23.973 11.0325L23.9925 11.367L24 11.703L23.9985 17.112L25.4295 20.9925L25.467 21.12L25.491 21.249L25.4985 21.3825C25.4985 21.855 25.2045 22.2675 24.7155 22.443L24.5445 22.4925L24.3735 22.5075H5.62651C5.49401 22.5056 5.36273 22.4818 5.23801 22.437C4.80751 22.2795 4.52401 21.879 4.51501 21.363L4.52101 21.1875L4.57201 20.9925L5.99701 17.1165L6.00001 11.6895L6.00602 11.352C6.19052 6.6765 10.1565 3 14.997 3Z" fill="#CFD0D9"/>
</svg>
