<svg width="30" height="30" viewBox="0 0 30 30" fill="none" xmlns="http://www.w3.org/2000/svg">
<path d="M7.5 13.125H13.125V30H7.5V13.125ZM9.375 28.125H11.25V15H9.375V28.125ZM15 16.875H20.625V30H15V16.875ZM16.875 28.125H18.75V18.75H16.875V28.125ZM0 20.625H5.625V30H0V20.625ZM1.875 28.125H3.75V22.5H1.875V28.125ZM22.5 9.375H28.125V30H22.5V9.375ZM24.375 28.125H26.25V11.25H24.375V28.125ZM20.3467 9.09668C20.5322 9.49707 20.625 9.90234 20.625 10.3125C20.625 10.7031 20.5518 11.0693 20.4053 11.4111C20.2588 11.7529 20.0586 12.0508 19.8047 12.3047C19.5508 12.5586 19.2529 12.7588 18.9111 12.9053C18.5693 13.0518 18.2031 13.125 17.8125 13.125C17.4219 13.125 17.0557 13.0518 16.7139 12.9053C16.3721 12.7588 16.0742 12.5586 15.8203 12.3047C15.5664 12.0508 15.3662 11.7529 15.2197 11.4111C15.0732 11.0693 15 10.7031 15 10.3125V10.1367C15 10.0781 15.0049 10.0195 15.0146 9.96094L12.2607 8.58398C12.0068 8.83789 11.709 9.0332 11.3672 9.16992C11.0254 9.30664 10.6738 9.375 10.3125 9.375C9.90234 9.375 9.49707 9.28223 9.09668 9.09668L5.34668 12.8467C5.53223 13.2471 5.625 13.6523 5.625 14.0625C5.625 14.4531 5.55176 14.8193 5.40527 15.1611C5.25879 15.5029 5.05859 15.8008 4.80469 16.0547C4.55078 16.3086 4.25293 16.5088 3.91113 16.6553C3.56934 16.8018 3.20312 16.875 2.8125 16.875C2.42188 16.875 2.05566 16.8018 1.71387 16.6553C1.37207 16.5088 1.07422 16.3086 0.820312 16.0547C0.566406 15.8008 0.366211 15.5029 0.219727 15.1611C0.0732422 14.8193 0 14.4531 0 14.0625C0 13.6719 0.0732422 13.3057 0.219727 12.9639C0.366211 12.6221 0.566406 12.3242 0.820312 12.0703C1.07422 11.8164 1.37207 11.6162 1.71387 11.4697C2.05566 11.3232 2.42188 11.25 2.8125 11.25C3.22266 11.25 3.62793 11.3428 4.02832 11.5283L7.77832 7.77832C7.59277 7.37793 7.5 6.97266 7.5 6.5625C7.5 6.17188 7.57324 5.80566 7.71973 5.46387C7.86621 5.12207 8.06641 4.82422 8.32031 4.57031C8.57422 4.31641 8.87207 4.11621 9.21387 3.96973C9.55566 3.82324 9.92188 3.75 10.3125 3.75C10.7031 3.75 11.0693 3.82324 11.4111 3.96973C11.7529 4.11621 12.0508 4.31641 12.3047 4.57031C12.5586 4.82422 12.7588 5.12207 12.9053 5.46387C13.0518 5.80566 13.125 6.17188 13.125 6.5625V6.73828C13.125 6.79688 13.1201 6.85547 13.1104 6.91406L15.8643 8.29102C16.1182 8.03711 16.416 7.8418 16.7578 7.70508C17.0996 7.56836 17.4512 7.5 17.8125 7.5C18.2227 7.5 18.6279 7.59277 19.0283 7.77832L22.7783 4.02832C22.5928 3.62793 22.5 3.22266 22.5 2.8125C22.5 2.42188 22.5732 2.05566 22.7197 1.71387C22.8662 1.37207 23.0664 1.07422 23.3203 0.820312C23.5742 0.566406 23.8721 0.366211 24.2139 0.219727C24.5557 0.0732422 24.9219 0 25.3125 0C25.7031 0 26.0693 0.0732422 26.4111 0.219727C26.7529 0.366211 27.0508 0.566406 27.3047 0.820312C27.5586 1.07422 27.7588 1.37207 27.9053 1.71387C28.0518 2.05566 28.125 2.42188 28.125 2.8125C28.125 3.20312 28.0518 3.56934 27.9053 3.91113C27.7588 4.25293 27.5586 4.55078 27.3047 4.80469C27.0508 5.05859 26.7529 5.25879 26.4111 5.40527C26.0693 5.55176 25.7031 5.625 25.3125 5.625C24.9023 5.625 24.4971 5.53223 24.0967 5.34668L20.3467 9.09668ZM2.8125 15C3.06641 15 3.28613 14.9072 3.47168 14.7217C3.65723 14.5361 3.75 14.3164 3.75 14.0625C3.75 13.8086 3.65723 13.5889 3.47168 13.4033C3.28613 13.2178 3.06641 13.125 2.8125 13.125C2.55859 13.125 2.33887 13.2178 2.15332 13.4033C1.96777 13.5889 1.875 13.8086 1.875 14.0625C1.875 14.3164 1.96777 14.5361 2.15332 14.7217C2.33887 14.9072 2.55859 15 2.8125 15ZM25.3125 1.875C25.0586 1.875 24.8389 1.96777 24.6533 2.15332C24.4678 2.33887 24.375 2.55859 24.375 2.8125C24.375 3.06641 24.4678 3.28613 24.6533 3.47168C24.8389 3.65723 25.0586 3.75 25.3125 3.75C25.5664 3.75 25.7861 3.65723 25.9717 3.47168C26.1572 3.28613 26.25 3.06641 26.25 2.8125C26.25 2.55859 26.1572 2.33887 25.9717 2.15332C25.7861 1.96777 25.5664 1.875 25.3125 1.875ZM10.3125 7.5C10.5664 7.5 10.7861 7.40723 10.9717 7.22168C11.1572 7.03613 11.25 6.81641 11.25 6.5625C11.25 6.30859 11.1572 6.08887 10.9717 5.90332C10.7861 5.71777 10.5664 5.625 10.3125 5.625C10.0586 5.625 9.83887 5.71777 9.65332 5.90332C9.46777 6.08887 9.375 6.30859 9.375 6.5625C9.375 6.81641 9.46777 7.03613 9.65332 7.22168C9.83887 7.40723 10.0586 7.5 10.3125 7.5ZM17.8125 11.25C18.0664 11.25 18.2861 11.1572 18.4717 10.9717C18.6572 10.7861 18.75 10.5664 18.75 10.3125C18.75 10.0586 18.6572 9.83887 18.4717 9.65332C18.2861 9.46777 18.0664 9.375 17.8125 9.375C17.5586 9.375 17.3389 9.46777 17.1533 9.65332C16.9678 9.83887 16.875 10.0586 16.875 10.3125C16.875 10.5664 16.9678 10.7861 17.1533 10.9717C17.3389 11.1572 17.5586 11.25 17.8125 11.25Z" fill="#CFD0D9"/>
</svg>
