<svg width="30" height="30" viewBox="0 0 30 30" fill="none" xmlns="http://www.w3.org/2000/svg">
<path d="M25 17.4999C25.3186 17.5003 25.6251 17.6223 25.8567 17.841C26.0884 18.0597 26.2278 18.3586 26.2465 18.6767C26.2652 18.9947 26.1617 19.3079 25.9572 19.5522C25.7527 19.7966 25.4626 19.9536 25.1463 19.9912L25 19.9999H8.01752L10.8838 22.8662C11.108 23.0911 11.2381 23.393 11.2478 23.7104C11.2575 24.0279 11.146 24.3371 10.936 24.5753C10.7259 24.8135 10.4331 24.9628 10.1169 24.9929C9.80077 25.0231 9.48501 24.9317 9.23377 24.7374L9.11627 24.6337L4.32877 19.8462C3.49752 19.0162 4.03002 17.6174 5.15752 17.5074L5.30127 17.4999H25ZM19.1163 5.3662C19.3315 5.15098 19.6179 5.02169 19.9217 5.00259C20.2255 4.98349 20.5258 5.07588 20.7663 5.26245L20.8838 5.3662L25.6713 10.1537C26.5025 10.9837 25.97 12.3824 24.8425 12.4924L24.6988 12.4999H5.00002C4.68142 12.4996 4.37498 12.3776 4.14331 12.1589C3.91164 11.9402 3.77223 11.6413 3.75355 11.3232C3.73488 11.0052 3.83836 10.692 4.04285 10.4477C4.24734 10.2033 4.5374 10.0463 4.85377 10.0087L5.00002 9.99995H21.9825L19.1163 7.1337C18.8819 6.89929 18.7503 6.5814 18.7503 6.24995C18.7503 5.91849 18.8819 5.60061 19.1163 5.3662Z" fill="#CFD0D9"/>
</svg>
