<svg width="30" height="30" viewBox="0 0 30 30" fill="none" xmlns="http://www.w3.org/2000/svg">
<path d="M24.625 16.125L17.5 23.25H14.625V20.375L21.75 13.25L24.625 16.125ZM28.875 15.125C28.875 15.5 28.5 15.875 28.125 16.25L25 19.375L23.875 18.25L27.125 15L26.375 14.25L25.5 15.125L22.625 12.25L25.375 9.625C25.625 9.375 26.125 9.375 26.5 9.625L28.25 11.375C28.5 11.625 28.5 12.125 28.25 12.5C28 12.75 27.75 13 27.75 13.25C27.75 13.5 28 13.75 28.25 14C28.625 14.375 29 14.75 28.875 15.125ZM3.75 25V5H12.5V11.25H18.75V13.125L21.25 10.625V10L13.75 2.5H3.75C2.375 2.5 1.25 3.625 1.25 5V25C1.25 26.375 2.375 27.5 3.75 27.5H18.75C20.125 27.5 21.25 26.375 21.25 25H3.75ZM13.75 21.375C13.5 21.375 13.25 21.5 13.125 21.5L12.5 18.75H10.625L8 20.875L8.75 17.5H6.875L5.625 23.75H7.5L11.125 20.5L11.875 23.375H13.125L13.75 23.25V21.375Z" fill="#CFD0D9"/>
</svg>
