<svg width="30" height="31" viewBox="0 0 30 31" fill="none" xmlns="http://www.w3.org/2000/svg">
<path d="M16.6406 21.4131C16.6406 21.5996 16.5666 21.7784 16.4347 21.9103C16.3028 22.0421 16.124 22.1162 15.9375 22.1162C15.5024 22.1162 15.0851 21.9434 14.7774 21.6357C14.4697 21.328 14.2969 20.9107 14.2969 20.4756V15.7881C14.2969 15.7259 14.2722 15.6663 14.2282 15.6224C14.1843 15.5784 14.1247 15.5537 14.0625 15.5537C13.876 15.5537 13.6972 15.4796 13.5653 15.3478C13.4335 15.2159 13.3594 15.0371 13.3594 14.8506C13.3594 14.6641 13.4335 14.4853 13.5653 14.3534C13.6972 14.2215 13.876 14.1475 14.0625 14.1475C14.4976 14.1475 14.9149 14.3203 15.2226 14.628C15.5303 14.9357 15.7031 15.353 15.7031 15.7881V20.4756C15.7031 20.5377 15.7278 20.5974 15.7718 20.6413C15.8157 20.6853 15.8753 20.71 15.9375 20.71C16.124 20.71 16.3028 20.784 16.4347 20.9159C16.5666 21.0478 16.6406 21.2266 16.6406 21.4131ZM14.5313 11.8037C14.763 11.8037 14.9896 11.735 15.1823 11.6062C15.375 11.4774 15.5252 11.2944 15.6139 11.0803C15.7026 10.8662 15.7258 10.6305 15.6806 10.4032C15.6354 10.1759 15.5238 9.96709 15.3599 9.8032C15.196 9.63931 14.9872 9.5277 14.7599 9.48248C14.5326 9.43726 14.2969 9.46047 14.0828 9.54917C13.8687 9.63786 13.6856 9.78806 13.5569 9.98078C13.4281 10.1735 13.3594 10.4001 13.3594 10.6318C13.3594 10.9426 13.4828 11.2407 13.7026 11.4605C13.9224 11.6802 14.2205 11.8037 14.5313 11.8037ZM26.9531 15.7881C26.9531 18.1522 26.2521 20.4632 24.9387 22.4289C23.6252 24.3946 21.7584 25.9266 19.5743 26.8313C17.3901 27.736 14.9867 27.9728 12.6681 27.5115C10.3494 27.0503 8.21954 25.9119 6.54787 24.2402C4.87619 22.5685 3.73777 20.4387 3.27656 18.12C2.81534 15.8013 3.05205 13.398 3.95676 11.2138C4.86146 9.02968 6.39352 7.16285 8.3592 5.84943C10.3249 4.536 12.6359 3.83496 15 3.83496C18.169 3.83868 21.2072 5.09922 23.448 7.34006C25.6889 9.5809 26.9494 12.6191 26.9531 15.7881ZM25.5469 15.7881C25.5469 13.7021 24.9283 11.663 23.7694 9.92856C22.6105 8.19413 20.9633 6.84231 19.0361 6.04404C17.1089 5.24578 14.9883 5.03691 12.9424 5.44387C10.8965 5.85082 9.01725 6.85531 7.54224 8.33032C6.06723 9.80533 5.06274 11.6846 4.65579 13.7305C4.24883 15.7764 4.4577 17.897 5.25596 19.8242C6.05423 21.7514 7.40605 23.3986 9.14048 24.5575C10.8749 25.7164 12.914 26.335 15 26.335C17.7963 26.3319 20.4771 25.2197 22.4543 23.2424C24.4316 21.2652 25.5438 18.5843 25.5469 15.7881Z" fill="#355070"/>
</svg>
