<svg width="30" height="30" viewBox="0 0 30 30" fill="none" xmlns="http://www.w3.org/2000/svg">
<g clip-path="url(#clip0_1265_452)">
<path d="M15 14.6484V28.6963L14.0625 29.165L1.875 23.0859V7.85156L14.0625 1.75781L26.25 7.85156V18.75H24.375V9.96094L15 14.6484ZM14.0625 3.86719L10.5322 5.625L19.6289 10.2246L23.2178 8.4375L14.0625 3.86719ZM13.125 26.6016V14.6484L3.75 9.96094V21.9141L13.125 26.6016ZM4.90723 8.4375L14.0625 13.0078L17.5488 11.2793L8.4375 6.67969L4.90723 8.4375ZM20.625 26.25V24.375H30V26.25H20.625ZM20.625 20.625H30V22.5H20.625V20.625ZM16.875 30V28.125H18.75V30H16.875ZM16.875 22.5V20.625H18.75V22.5H16.875ZM16.875 26.25V24.375H18.75V26.25H16.875ZM20.625 30V28.125H30V30H20.625Z" fill="#CFD0D9"/>
</g>
<defs>
<clipPath id="clip0_1265_452">
<rect width="30" height="30" fill="white"/>
</clipPath>
</defs>
</svg>
