<svg width="30" height="30" viewBox="0 0 30 30" fill="none" xmlns="http://www.w3.org/2000/svg">
<path d="M19.7372 19.5C18.6759 19.0753 18.2522 17.9081 18.2522 17.9081C18.2522 17.9081 17.7741 18.1725 17.7741 17.43C17.7741 16.6875 18.2522 17.9081 18.7303 15.0412C18.7303 15.0412 20.055 14.669 19.7897 11.5912H19.4709C19.4709 11.5912 20.2678 8.3006 19.4709 7.18498C18.6741 6.07123 18.3572 5.32873 16.605 4.79716C14.8528 4.2656 15.4913 4.37154 14.2172 4.42591C12.9422 4.48029 11.8809 5.16935 11.8809 5.54154C11.8809 5.54154 11.0841 5.59404 10.7672 5.91279C10.4484 6.23154 9.91782 7.71654 9.91782 8.08779C9.91782 8.45904 10.1831 10.9565 10.4484 11.4862L10.1325 11.5931C9.86625 14.6709 11.1919 15.0431 11.1919 15.0431C11.67 17.91 12.1481 16.6894 12.1481 17.4319C12.1481 18.1744 11.67 17.91 11.67 17.91C11.67 17.91 11.2463 19.0772 10.185 19.5019C9.12375 19.9256 3.2325 22.2075 2.75344 22.6856C2.27344 23.1637 2.32781 25.3931 2.32781 25.3931H27.5906C27.5906 25.3931 27.6469 23.1647 27.1669 22.6856C26.6888 22.2075 20.7966 19.9256 19.7353 19.5019L19.7372 19.5ZM8.04657 19.3387C7.95282 19.17 7.90781 19.0481 7.90781 19.0481C7.90781 19.0481 7.50281 19.2731 7.50281 18.6431C7.50281 18.0131 7.90781 19.0481 8.31281 16.6181C8.31281 16.6181 9.43781 16.304 9.21281 13.695H8.94094C8.94094 13.695 9.07594 13.1419 9.16406 12.4444C9.16011 12.1327 9.17169 11.8211 9.19875 11.5106L9.23438 11.1112C9.21563 10.65 9.13406 10.23 8.94188 9.96185C8.26688 9.01779 7.99688 8.38685 6.51375 7.93685C5.02875 7.48685 5.56688 7.57685 4.48875 7.62279C3.40875 7.66966 2.50875 8.25279 2.50875 8.56966C2.50875 8.56966 1.83375 8.61373 1.56375 8.88373C1.31063 9.13685 0.902815 10.2544 0.854065 10.6509V10.9134C0.899065 11.5265 1.09781 13.2103 1.29469 13.6069L1.02656 13.6969C0.801565 16.305 1.92656 16.62 1.92656 16.62C2.32969 19.0481 2.73563 18.015 2.73563 18.645C2.73563 19.275 2.33063 19.0481 2.33063 19.0481C2.33063 19.0481 1.97156 20.04 1.07156 20.3981L0.854065 20.4844V25.3912H1.39313C1.365 24.1931 1.46531 22.6472 2.0925 22.0219C2.42719 21.689 3.52125 21.1406 8.04844 19.3387H8.04657ZM28.9809 10.8487C28.9434 10.4944 28.8619 10.1784 28.7072 9.96185C28.0341 9.01685 27.7631 8.38685 26.2791 7.93685C24.795 7.48685 25.335 7.57685 24.2541 7.62279C23.1759 7.66966 22.2759 8.25279 22.2759 8.56966C22.2759 8.56966 21.6009 8.61373 21.3309 8.88373C21.0778 9.13873 20.6653 10.2637 20.6203 10.6556H20.6513L20.7263 11.5125C20.745 11.7281 20.7469 11.9203 20.7516 12.1162C20.8359 12.7406 20.9484 13.3819 21.0609 13.6069L20.7928 13.6959C20.5678 16.304 21.6928 16.619 21.6928 16.619C22.0978 19.0472 22.5019 18.014 22.5019 18.644C22.5019 19.274 22.0988 19.0472 22.0988 19.0472C22.0988 19.0472 22.0481 19.1812 21.945 19.3659C26.4169 21.1472 27.5016 21.6909 27.8325 22.0219C28.4606 22.6481 28.5581 24.1931 28.5309 25.3922H28.9809V20.4187L28.9341 20.3981C28.0341 20.039 27.6741 19.0481 27.6741 19.0481C27.6741 19.0481 27.2681 19.2731 27.2681 18.645C27.2681 18.0169 27.6741 19.0481 28.0781 16.62C28.0781 16.62 28.8319 16.4044 28.9809 14.895V13.7437C28.9809 13.7269 28.9809 13.7128 28.9781 13.6969H28.7063C28.7063 13.6969 28.9088 12.8625 28.9809 11.9512V10.8487Z" fill="#CFD0D9"/>
</svg>
