<svg width="47" height="47" viewBox="0 0 47 47" fill="none" xmlns="http://www.w3.org/2000/svg">
<path d="M33.7813 21.0746V14.6875C33.7813 11.9607 32.6981 9.34567 30.7699 7.41756C28.8418 5.48945 26.2268 4.40625 23.5 4.40625C20.7733 4.40625 18.1582 5.48945 16.2301 7.41756C14.302 9.34567 13.2188 11.9607 13.2188 14.6875V21.0746C11.6502 23.0156 10.6632 25.3609 10.3717 27.8393C10.0803 30.3177 10.4963 32.828 11.5718 35.0799C12.6473 37.3318 14.3382 39.2332 16.4491 40.5643C18.56 41.8955 21.0045 42.6019 23.5 42.6019C25.9955 42.6019 28.4401 41.8955 30.5509 40.5643C32.6618 39.2332 34.3527 37.3318 35.4282 35.0799C36.5037 32.828 36.9197 30.3177 36.6283 27.8393C36.3368 25.3609 35.3498 23.0156 33.7813 21.0746Z" stroke="#555555" stroke-width="1.25" stroke-linecap="round" stroke-linejoin="round"/>
<path d="M23.5 16.1563C25.5397 16.1575 27.5511 16.6336 29.375 17.5467V14.6875C29.375 13.1294 28.756 11.635 27.6543 10.5332C26.5525 9.43147 25.0581 8.8125 23.5 8.8125C21.9419 8.8125 20.4475 9.43147 19.3457 10.5332C18.244 11.635 17.625 13.1294 17.625 14.6875V17.5467C19.4489 16.6335 21.4603 16.1575 23.5 16.1563ZM26.9271 27.4167C26.9292 26.8029 26.7665 26.1997 26.4559 25.6703C26.1452 25.1409 25.6981 24.7046 25.1612 24.4071C24.6244 24.1096 24.0174 23.9617 23.4039 23.9789C22.7903 23.9961 22.1926 24.1778 21.6733 24.505C21.1539 24.8322 20.732 25.2929 20.4515 25.8389C20.1711 26.3849 20.0424 26.9962 20.079 27.6089C20.1156 28.2216 20.3161 28.8133 20.6595 29.322C21.0029 29.8308 21.4767 30.238 22.0313 30.501V35.25H24.9688V30.501C25.5535 30.2248 26.0479 29.7884 26.3946 29.2424C26.7412 28.6965 26.9259 28.0634 26.9271 27.4167Z" stroke="#555555" stroke-width="1.25" stroke-linecap="round" stroke-linejoin="round"/>
</svg>
