<svg width="41" height="41" viewBox="0 0 41 41" fill="none" xmlns="http://www.w3.org/2000/svg">
<g clip-path="url(#clip0_54_9)">
<mask id="mask0_54_9" style="mask-type:luminance" maskUnits="userSpaceOnUse" x="0" y="0" width="41" height="41">
<path d="M0 0H41V41H0V0Z" fill="white"/>
<path fill-rule="evenodd" clip-rule="evenodd" d="M7.88464 17.346C7.88464 16.9278 8.05078 16.5267 8.34651 16.231C8.64224 15.9353 9.04334 15.7691 9.46157 15.7691H25.7165C26.1347 15.7691 26.5358 15.9353 26.8315 16.231C27.1273 16.5267 27.2934 16.9278 27.2934 17.346C27.2934 17.7643 27.1273 18.1654 26.8315 18.4611C26.5358 18.7568 26.1347 18.923 25.7165 18.923H9.46157C9.04334 18.923 8.64224 18.7568 8.34651 18.4611C8.05078 18.1654 7.88464 17.7643 7.88464 17.346ZM7.88464 11.0383C7.88464 10.6201 8.05078 10.219 8.34651 9.9233C8.64224 9.62757 9.04334 9.46143 9.46157 9.46143H31.5385C31.9567 9.46143 32.3578 9.62757 32.6535 9.9233C32.9493 10.219 33.1154 10.6201 33.1154 11.0383C33.1154 11.4566 32.9493 11.8577 32.6535 12.1534C32.3578 12.4491 31.9567 12.6153 31.5385 12.6153H9.46157C9.04334 12.6153 8.64224 12.4491 8.34651 12.1534C8.05078 11.8577 7.88464 11.4566 7.88464 11.0383ZM7.88464 23.6537C7.88464 23.2355 8.05078 22.8344 8.34651 22.5387C8.64224 22.243 9.04334 22.0768 9.46157 22.0768H31.5385C31.9567 22.0768 32.3578 22.243 32.6535 22.5387C32.9493 22.8344 33.1154 23.2355 33.1154 23.6537C33.1154 24.072 32.9493 24.4731 32.6535 24.7688C32.3578 25.0645 31.9567 25.2307 31.5385 25.2307H9.46157C9.04334 25.2307 8.64224 25.0645 8.34651 24.7688C8.05078 24.4731 7.88464 24.072 7.88464 23.6537ZM7.88464 29.9614C7.88464 29.5432 8.05078 29.1421 8.34651 28.8464C8.64224 28.5506 9.04334 28.3845 9.46157 28.3845H25.7165C26.1347 28.3845 26.5358 28.5506 26.8315 28.8464C27.1273 29.1421 27.2934 29.5432 27.2934 29.9614C27.2934 30.3797 27.1273 30.7808 26.8315 31.0765C26.5358 31.3722 26.1347 31.5383 25.7165 31.5383H9.46157C9.04334 31.5383 8.64224 31.3722 8.34651 31.0765C8.05078 30.7808 7.88464 30.3797 7.88464 29.9614Z" fill="black"/>
</mask>
<g mask="url(#mask0_54_9)">
<path d="M20.5 41C31.8218 41 41 31.8218 41 20.5C41 9.17816 31.8218 0 20.5 0C9.17816 0 0 9.17816 0 20.5C0 31.8218 9.17816 41 20.5 41Z" fill="#355070"/>
</g>
</g>
<defs>
<clipPath id="clip0_54_9">
<rect width="41" height="41" fill="white"/>
</clipPath>
</defs>
</svg>
