<svg width="60" height="60" viewBox="0 0 60 60" fill="none" xmlns="http://www.w3.org/2000/svg">
<path d="M52.5 30C52.5 17.5781 42.4219 7.5 30 7.5C17.5781 7.5 7.5 17.5781 7.5 30C7.5 42.4219 17.5781 52.5 30 52.5C42.4219 52.5 52.5 42.4219 52.5 30Z" stroke="#355070" stroke-width="3.75" stroke-miterlimit="10"/>
<path d="M42.7969 36.6797C40.8832 34.4133 39.532 33.4605 39.532 27.2109C39.532 21.4852 36.5109 19.4496 34.0242 18.4605C33.8527 18.389 33.698 18.2824 33.5701 18.1476C33.4422 18.0128 33.3438 17.8528 33.2813 17.6777C32.8465 16.2422 31.6266 15 30 15C28.3734 15 27.1512 16.2422 26.7188 17.6789C26.6566 17.854 26.5585 18.014 26.4308 18.1489C26.303 18.2837 26.1484 18.3903 25.977 18.4617C23.4879 19.4531 20.4691 21.4852 20.4691 27.2121C20.4691 33.4617 19.1168 34.4145 17.2031 36.6809C16.4098 37.6184 17.127 39.3762 18.5145 39.3762H41.4844C42.8637 39.375 43.5867 37.6172 42.7969 36.6797ZM25.8094 41.25C25.7435 41.2496 25.6782 41.2632 25.6179 41.2898C25.5575 41.3163 25.5035 41.3553 25.4592 41.4042C25.415 41.4531 25.3816 41.5108 25.3611 41.5734C25.3407 41.6361 25.3337 41.7024 25.3406 41.768C25.6043 43.9617 27.552 45 30 45C32.4223 45 34.3524 43.9277 34.6477 41.775C34.6557 41.7089 34.6495 41.6418 34.6295 41.5783C34.6096 41.5148 34.5763 41.4562 34.532 41.4065C34.4876 41.3569 34.4332 41.3172 34.3723 41.2902C34.3114 41.2632 34.2455 41.2495 34.1789 41.25H25.8094Z" fill="#355070"/>
</svg>
