<svg width="60" height="60" viewBox="0 0 60 60" fill="none" xmlns="http://www.w3.org/2000/svg">
<g clip-path="url(#clip0_39_6)">
<path opacity="0.2" d="M52.5 29.9999C52.5034 33.1553 51.8413 36.276 50.5571 39.1583C49.2728 42.0406 47.3953 44.6197 45.0469 46.7272C43.635 43.9501 41.4819 41.6181 38.8261 39.9894C36.1703 38.3608 33.1154 37.4991 30 37.4999C31.8542 37.4999 33.6668 36.9501 35.2085 35.9199C36.7502 34.8898 37.9518 33.4256 38.6614 31.7126C39.3709 29.9995 39.5566 28.1145 39.1949 26.2959C38.8331 24.4774 37.9402 22.8069 36.6291 21.4958C35.318 20.1847 33.6475 19.2918 31.829 18.93C30.0104 18.5683 28.1254 18.754 26.4123 19.4635C24.6993 20.1731 23.2351 21.3747 22.205 22.9164C21.1748 24.4581 20.625 26.2707 20.625 28.1249C20.625 30.6113 21.6127 32.9959 23.3709 34.754C25.129 36.5122 27.5136 37.4999 30 37.4999C26.8846 37.4991 23.8298 38.3608 21.1739 39.9894C18.5181 41.6181 16.365 43.9501 14.9531 46.7272C12.1647 44.2191 10.0474 41.0537 8.79389 37.5188C7.54038 33.984 7.19038 30.1918 7.77571 26.4873C8.36105 22.7827 9.86315 19.2832 12.1454 16.307C14.4277 13.3309 17.4178 10.9724 20.8437 9.44613C24.2696 7.91986 28.0227 7.2742 31.7617 7.56786C35.5007 7.86152 39.107 9.08519 42.2527 11.1276C45.3983 13.17 47.9835 15.9663 49.7732 19.2623C51.5628 22.5583 52.5002 26.2494 52.5 29.9999Z" fill="#355070"/>
<path d="M59.4516 31.3265L53.8266 36.9515C53.6524 37.1258 53.4456 37.2641 53.218 37.3585C52.9904 37.4529 52.7464 37.5014 52.5 37.5014C52.2536 37.5014 52.0096 37.4529 51.782 37.3585C51.5544 37.2641 51.3476 37.1258 51.1734 36.9515L45.5484 31.3265C45.1966 30.9747 44.999 30.4975 44.999 29.9999C44.999 29.5024 45.1966 29.0252 45.5484 28.6734C45.9003 28.3216 46.3774 28.1239 46.875 28.1239C47.3726 28.1239 47.8497 28.3216 48.2016 28.6734L50.625 31.0992V29.9999C50.6272 25.6327 49.243 21.3774 46.6718 17.8472C44.1007 14.317 40.4753 11.6941 36.318 10.3563C32.1607 9.01849 27.686 9.03484 23.5386 10.403C19.3912 11.7712 15.7851 14.4206 13.2398 17.9695C12.9496 18.3735 12.5107 18.6457 12.0197 18.7261C11.5287 18.8066 11.0259 18.6887 10.6219 18.3984C10.2178 18.1081 9.94566 17.6692 9.86523 17.1782C9.78479 16.6873 9.90269 16.1845 10.193 15.7804C13.2011 11.5863 17.463 8.45536 22.3646 6.83858C27.2662 5.22179 32.5545 5.20265 37.4676 6.7839C42.3808 8.36515 46.6652 11.4652 49.7037 15.6374C52.7421 19.8096 54.3778 24.8386 54.375 29.9999V31.0992L56.7984 28.6734C57.1503 28.3216 57.6274 28.1239 58.125 28.1239C58.6226 28.1239 59.0997 28.3216 59.4516 28.6734C59.8034 29.0252 60.001 29.5024 60.0011 29.9999C60.0011 30.4975 59.8034 30.9747 59.4516 31.3265ZM49.8 44.2171C46.791 48.4081 42.5297 51.5361 37.6297 53.151C32.7297 54.766 27.4436 54.7845 22.5324 53.2038C17.6212 51.6232 13.3382 48.5251 10.2999 44.3553C7.26165 40.1855 5.6248 35.1592 5.625 29.9999V28.9007L3.20157 31.3265C2.84974 31.6783 2.37256 31.876 1.87501 31.876C1.37745 31.876 0.900269 31.6783 0.548443 31.3265C0.196616 30.9747 -0.0010376 30.4975 -0.0010376 29.9999C-0.0010376 29.5024 0.196616 29.0252 0.548443 28.6734L6.17344 23.0484C6.34758 22.874 6.55437 22.7358 6.78199 22.6414C7.00961 22.547 7.2536 22.4985 7.5 22.4985C7.74641 22.4985 7.9904 22.547 8.21802 22.6414C8.44564 22.7358 8.65243 22.874 8.82657 23.0484L14.4516 28.6734C14.8034 29.0252 15.001 29.5024 15.001 29.9999C15.001 30.4975 14.8034 30.9747 14.4516 31.3265C14.0997 31.6783 13.6226 31.876 13.125 31.876C12.6274 31.876 12.1503 31.6783 11.7984 31.3265L9.375 28.9007V29.9999C9.37056 35.0488 11.2262 39.9224 14.5875 43.6898C16.6787 40.6595 19.6191 38.3151 23.0391 36.9515C21.202 35.5046 19.8615 33.5212 19.2039 31.277C18.5464 29.0329 18.6045 26.6397 19.3701 24.4301C20.1358 22.2206 21.571 20.3045 23.4761 18.9484C25.3812 17.5924 27.6615 16.8636 30 16.8636C32.3385 16.8636 34.6188 17.5924 36.5239 18.9484C38.429 20.3045 39.8642 22.2206 40.6299 24.4301C41.3955 26.6397 41.4536 29.0329 40.7961 31.277C40.1385 33.5212 38.798 35.5046 36.9609 36.9515C40.384 38.3154 43.3265 40.6625 45.4172 43.6968C45.8913 43.1644 46.3379 42.6082 46.7555 42.0304C47.0458 41.6264 47.4847 41.3542 47.9756 41.2738C48.4666 41.1933 48.9694 41.3112 49.3734 41.6015C49.7775 41.8918 50.0497 42.3307 50.1301 42.8217C50.2105 43.3126 50.0926 43.8154 49.8024 44.2195L49.8 44.2171ZM30 35.6249C31.4834 35.6249 32.9334 35.1851 34.1668 34.361C35.4002 33.5369 36.3614 32.3655 36.9291 30.9951C37.4968 29.6246 37.6453 28.1166 37.3559 26.6618C37.0665 25.2069 36.3522 23.8705 35.3033 22.8216C34.2544 21.7727 32.918 21.0584 31.4632 20.7691C30.0083 20.4797 28.5003 20.6282 27.1299 21.1958C25.7594 21.7635 24.5881 22.7248 23.764 23.9582C22.9399 25.1915 22.5 26.6416 22.5 28.1249C22.5 30.1141 23.2902 32.0217 24.6967 33.4282C26.1032 34.8348 28.0109 35.6249 30 35.6249ZM30 50.6249C34.576 50.619 39.0208 49.0948 42.6375 46.2913C41.2811 44.17 39.4125 42.4242 37.2039 41.2149C34.9954 40.0056 32.518 39.3718 30 39.3718C27.4821 39.3718 25.0046 40.0056 22.7961 41.2149C20.5875 42.4242 18.7189 44.17 17.3625 46.2913C20.9738 49.1049 25.4221 50.6302 30 50.6249Z" fill="#355070"/>
</g>
<defs>
<clipPath id="clip0_39_6">
<rect width="60" height="60" fill="white"/>
</clipPath>
</defs>
</svg>
