<svg width="38" height="44" viewBox="0 0 38 44" fill="none" xmlns="http://www.w3.org/2000/svg">
<path d="M19 23.6017C14.1294 23.6017 10.1669 19.0136 10.1669 13.3739C10.1669 7.73422 14.1294 3.14722 19 3.14722C23.8707 3.14722 27.8331 7.73532 27.8331 13.375C27.8331 19.0147 23.8707 23.6017 19 23.6017ZM19 4.11852C14.593 4.11852 11.0067 8.27102 11.0067 13.3739C11.0067 18.4768 14.593 22.6293 19 22.6293C23.4071 22.6293 26.9933 18.4768 26.9933 13.3739C26.9933 8.27102 23.4071 4.11852 19 4.11852ZM34.9866 40.853H3.01341C2.90204 40.853 2.79524 40.8018 2.71649 40.7106C2.63775 40.6194 2.59351 40.4958 2.59351 40.3668V34.0891C2.97636 26.1152 9.18081 25.6345 9.24351 25.6301L28.7309 25.629C28.8164 25.6334 35.0227 26.1152 35.4046 34.0616L35.4056 40.3668C35.4058 40.4307 35.3951 40.4939 35.3742 40.553C35.3532 40.612 35.3224 40.6657 35.2835 40.7109C35.2445 40.7561 35.1982 40.7919 35.1473 40.8163C35.0964 40.8407 35.0417 40.8532 34.9866 40.853ZM3.43331 39.8817H34.5667V34.0891C34.2266 27.0293 28.9342 26.6146 28.709 26.6003L9.26726 26.6014C9.06586 26.6157 3.77341 27.0524 3.43331 34.1155V39.8817Z" fill="#555555"/>
</svg>
